<svg xmlns="http://www.w3.org/2000/svg" width="1200" height="900" viewBox="0 0 1200 900">
  <defs>
    <linearGradient id="g1" x1="0" y1="0" x2="1" y2="1">
      <stop offset="0%" stop-color="#0f4c81"/>
      <stop offset="100%" stop-color="#1ca6a6"/>
    </linearGradient>
  </defs>
  <rect width="1200" height="900" rx="40" fill="#eaf4fb"/>
  <circle cx="910" cy="150" r="110" fill="#d4eef6"/>
  <circle cx="210" cy="720" r="130" fill="#dff4ff"/>
  <rect x="120" y="130" width="960" height="620" rx="36" fill="url(#g1)" opacity="0.95"/>
  <rect x="180" y="220" width="420" height="320" rx="28" fill="#ffffff" opacity="0.95"/>
  <rect x="640" y="220" width="380" height="90" rx="18" fill="#ffffff" opacity="0.16"/>
  <rect x="640" y="340" width="320" height="90" rx="18" fill="#ffffff" opacity="0.16"/>
  <rect x="640" y="460" width="250" height="90" rx="18" fill="#ffffff" opacity="0.16"/>
  <path d="M370 275c65 0 118 53 118 118s-53 118-118 118-118-53-118-118 53-118 118-118zm0 44c-40 0-73 33-73 74 0 40 33 73 73 73 41 0 74-33 74-73 0-41-33-74-74-74z" fill="#0f4c81"/>
  <path d="M370 348l18 36 40 6-29 28 7 40-36-19-36 19 7-40-29-28 40-6z" fill="#1ca6a6"/>
  <text x="190" y="660" font-size="52" font-family="Segoe UI, Arial, sans-serif" fill="#ffffff" font-weight="700">SafeNetra</text>
  <text x="190" y="715" font-size="28" font-family="Segoe UI, Arial, sans-serif" fill="#d8f7ff">Intelligent protection for safer social spaces</text>
</svg>
