<svg xmlns="http://www.w3.org/2000/svg" width="1200" height="800" viewBox="0 0 1200 800">
  <rect width="1200" height="800" rx="36" fill="#f4f8fb"/>
  <rect x="60" y="60" width="1080" height="680" rx="28" fill="#ffffff" stroke="#d7e7f4" stroke-width="4"/>
  <rect x="100" y="100" width="220" height="600" rx="24" fill="#0f4c81"/>
  <rect x="360" y="100" width="330" height="160" rx="24" fill="#dff4ff"/>
  <rect x="720" y="100" width="380" height="160" rx="24" fill="#e5fbf8"/>
  <rect x="360" y="290" width="740" height="180" rx="24" fill="#f8fbfe" stroke="#d7e7f4" stroke-width="3"/>
  <rect x="360" y="500" width="230" height="160" rx="24" fill="#eff8ff"/>
  <rect x="615" y="500" width="230" height="160" rx="24" fill="#f2fffc"/>
  <rect x="870" y="500" width="230" height="160" rx="24" fill="#eff8ff"/>
  <circle cx="210" cy="195" r="52" fill="#ffffff" opacity="0.92"/>
  <rect x="132" y="290" width="160" height="18" rx="9" fill="#ffffff" opacity="0.8"/>
  <rect x="132" y="335" width="130" height="18" rx="9" fill="#ffffff" opacity="0.6"/>
  <rect x="132" y="380" width="145" height="18" rx="9" fill="#ffffff" opacity="0.6"/>
  <path d="M430 210c24-40 58-60 102-60 51 0 95 28 117 74" fill="none" stroke="#1ca6a6" stroke-width="12" stroke-linecap="round"/>
  <path d="M780 200h250" stroke="#0f4c81" stroke-width="16" stroke-linecap="round"/>
  <path d="M780 235h190" stroke="#1ca6a6" stroke-width="16" stroke-linecap="round"/>
  <path d="M410 360h620" stroke="#d8e8f6" stroke-width="18" stroke-linecap="round"/>
  <path d="M410 410h500" stroke="#d8e8f6" stroke-width="18" stroke-linecap="round"/>
  <path d="M410 560h120" stroke="#0f4c81" stroke-width="18" stroke-linecap="round"/>
  <path d="M665 560h120" stroke="#1ca6a6" stroke-width="18" stroke-linecap="round"/>
  <path d="M920 560h120" stroke="#0f4c81" stroke-width="18" stroke-linecap="round"/>
</svg>
